#!OML:ASF E:\Steps\Project 1\Capture day 1\Session 2\Subject.ASF
:FULLY-SPECIFIED
:DEGREES
31
root -1.77621 16.1917 36.1127 -151.728 -0.99064 177.258
lowerback -31.4842 -2.25314 -6.34079
upperback -1.84737 -1.52835 -0.23792
thorax 14.4617 -1.42877 2.45507
lowerneck -2.85187 -3.37709 1.7873
upperneck 11.7295 -4.50377 2.39946
head 4.38444 -1.83791 0.294961
rclavicle -1.44119e-015 -1.53064e-014
rhumerus -38.3262 -23.1628 -75.3272
rradius 30.4271
rwrist 1.43931
rhand -1.62082 -56.3446
rfingers 7.12502
rthumb 24.037 -84.8593
lclavicle -1.44119e-015 -1.53064e-014
lhumerus -30.3876 5.67211 80.3297
lradius 21.3637
lwrist -6.34694
lhand -21.0871 -12.251
lfingers 7.12502
lthumb 5.29029 17.663
rfemur -22.3935 5.88812 19.4492
rtibia 3.94778
rfoot -17.4944 -6.30533
rtoes -30.8036
lfemur -23.8977 -8.96297 -20.1379
ltibia 8.77095
lfoot -9.7102 5.04558
ltoes -43.2892
32
root -1.77241 16.1929 36.1111 -151.743 -0.937144 177.246
lowerback -31.4189 -2.23417 -6.48898
upperback -1.86182 -1.45925 -0.218983
thorax 14.4117 -1.40653 2.58577
lowerneck -2.92137 -3.41941 1.80281
upperneck 11.791 -4.57159 2.49523
head 4.42371 -1.86175 0.319813
rclavicle -1.13804e-014 -3.00165e-014
rhumerus -38.4342 -23.463 -75.0723
rradius 30.1846
rwrist 1.7859
rhand -1.6367 -55.8427
rfingers 7.12502
rthumb 24.0218 -84.3595
lclavicle -1.13804e-014 -3.00165e-014
lhumerus -30.4138 5.6116 80.3611
lradius 21.2927
lwrist -6.36116
lhand -20.9183 -11.9246
lfingers 7.12502
lthumb 5.4532 17.9853
rfemur -22.383 6.00059 19.4199
rtibia 3.95675
rfoot -17.6816 -6.31333
rtoes -30.3354
lfemur -23.9898 -9.06132 -20.1086
ltibia 8.99769
lfoot -9.83642 5.14615
ltoes -42.6237
33
root -1.77016 16.194 36.1109 -151.768 -0.922693 177.236
lowerback -31.4872 -2.24498 -6.43077
upperback -1.79959 -1.47284 -0.26329
thorax 14.5137 -1.4083 2.49846
lowerneck -2.95655 -3.39659 1.84906
upperneck 11.8024 -4.54742 2.51328
head 4.43409 -1.84626 0.318267
rclavicle 5.96354e-015 1.2921e-014
rhumerus -38.3683 -23.3495 -75.2852
rradius 30.331
rwrist 1.79456
rhand -1.03382 -56.9657
rfingers 7.12502
rthumb 24.5998 -85.405
lclavicle 5.96354e-015 1.2921e-014
lhumerus -30.4171 5.69877 80.2283
lradius 21.2618
lwrist -6.41878
lhand -20.7228 -11.931
lfingers 7.12502
lthumb 5.642 17.9739
rfemur -22.3585 6.05174 19.4112
rtibia 3.96313
rfoot -17.6753 -6.36241
rtoes -30.7376
lfemur -23.9808 -8.87463 -20.1505
ltibia 9.0403
lfoot -9.83361 4.99636
ltoes -42.9956
34
root -1.76949 16.1952 36.1115 -151.786 -0.930078 177.23
lowerback -31.3929 -2.29061 -6.46155
upperback -1.84882 -1.54359 -0.196537
thorax 14.4242 -1.44183 2.56171
lowerneck -3.0627 -3.34226 1.74685
upperneck 12.0637 -4.45905 2.44812
head 4.55121 -1.79931 0.315731
rclavicle -8.19987e-015 1.76918e-014
rhumerus -38.5145 -23.3367 -75.0894
rradius 30.2121
rwrist 1.86845
rhand -0.649715 -55.8761
rfingers 7.12502
rthumb 24.9679 -84.2648
lclavicle -8.19987e-015 1.76918e-014
lhumerus -30.6039 5.75221 80.2724
lradius 21.2265
lwrist -6.44523
lhand -20.8359 -12.1023
lfingers 7.12502
lthumb 5.5328 17.8054
rfemur -22.3327 6.10381 19.3923
rtibia 3.94143
rfoot -17.7082 -6.41146
rtoes -30.5326
lfemur -23.9543 -8.92982 -20.1613
ltibia 9.06424
lfoot -9.81469 5.12983
ltoes -44.2394
35
root -1.76919 16.1951 36.111 -151.743 -0.922964 177.233
lowerback -31.4432 -2.28626 -6.45719
upperback -1.83483 -1.53494 -0.194828
thorax 14.4617 -1.43866 2.56322
lowerneck -3.32021 -3.29762 1.75438
upperneck 12.3721 -4.40136 2.41743
head 4.71534 -1.75841 0.301514
rclavicle 6.95746e-016 -1.80894e-014
rhumerus -38.5243 -23.4976 -75.0357
rradius 30.2079
rwrist 1.91311
rhand -0.575995 -56.0198
rfingers 7.12502
rthumb 25.0386 -84.3987
lclavicle 6.95746e-016 -1.80894e-014
lhumerus -30.6081 5.58653 80.3622
lradius 21.1454
lwrist -6.40809
lhand -21.1187 -11.8261
lfingers 7.12502
lthumb 5.25973 18.0886
rfemur -22.3701 6.26452 19.3303
rtibia 3.87844
rfoot -17.7589 -6.49184
rtoes -29.7849
lfemur -24.0237 -8.73714 -20.1974
ltibia 9.07949
lfoot -9.70631 5.01262
ltoes -45.2234
